<?xml version="1.0" encoding="UTF-8"?>
<svg xmlns="http://www.w3.org/2000/svg" id="a" viewBox="0 0 865.76 682.89">
  <g>
    <rect x="279.95" y="40.33" width="306.63" height="589.64" rx="27.32" ry="27.32" fill="#40069d"></rect>
    <path d="M552.93,47.61h-104.1c-2.08,6.51-8.17,11.22-15.37,11.22s-13.29-4.71-15.37-11.22h-104.49c-14.45,0-26.17,11.71-26.17,26.17V590.22c0,14.45,11.71,26.17,26.17,26.17h239.34c14.45,0,26.17-11.71,26.17-26.17V73.78c0-14.45-11.71-26.17-26.17-26.17Z" fill="#fff"></path>
    <rect x="328.76" y="173.37" width="208.62" height="29.52" fill="#28f200"></rect>
    <g opacity=".3">
      <rect x="344.11" y="182.03" width="177.13" height="11.41" fill="#fff"></rect>
    </g>
    <path d="M496.83,210.37v249.36c0,34.46-27.93,62.39-62.39,62.39h-14.37v-162.31c0-33.18-26.9-60.08-60.08-60.08h-27.3v-90.19c0-12.14,9.84-21.99,21.99-21.99h157.54s-15.79,3.15-15.39,22.83Z" fill="#f1f2f2"></path>
    <rect x="344.9" y="219.03" width="137.77" height="16.14" rx="8.07" ry="8.07" fill="#d1d3d4"></rect>
    <rect x="345.29" y="249.34" width="58.65" height="6.3" rx="3.15" ry="3.15" fill="#d1d3d4"></rect>
    <rect x="345.29" y="263.51" width="21.65" height="6.3" rx="3.15" ry="3.15" fill="#d1d3d4"></rect>
    <rect x="374.81" y="263.51" width="107.85" height="6.3" rx="3.15" ry="3.15" fill="#d1d3d4"></rect>
    <rect x="345.29" y="278.07" width="138.16" height="6.3" rx="3.15" ry="3.15" fill="#d1d3d4"></rect>
    <rect x="345.29" y="291.85" width="138.16" height="6.3" rx="3.15" ry="3.15" fill="#d1d3d4"></rect>
    <rect x="345.29" y="306.81" width="138.16" height="6.3" rx="3.15" ry="3.15" fill="#d1d3d4"></rect>
    <rect x="414.17" y="249.34" width="68.88" height="6.3" rx="3.15" ry="3.15" fill="#d1d3d4"></rect>
    <circle cx="202.8" cy="194.23" r="62.58" fill="#40069d"></circle>
    <circle cx="198.47" cy="197.38" r="62.58" fill="#28f200"></circle>
    <polygon points="153.99 192.46 168.56 180.26 187.45 202.3 230.35 165.3 242.95 179.47 186.66 229.46 153.99 192.46" fill="#fff"></polygon>
    <path d="M315.77,359.95v115.33H119.35l-.27-120.74c-.07-30.25,24.44-54.81,54.69-54.81h186.22c-48.67,9.45-44.23,60.22-44.23,60.22Z" fill="#f1f2f2"></path>
    <path d="M420.08,359.8v162.31h-121.07c-27.58,0-50.4-20.34-54.29-46.84h71.06v-115.33s-4.44-50.78,44.23-60.22c33.18,0,60.08,26.9,60.08,60.08Z" fill="#e6e7e8"></path>
    <rect x="143.37" y="342.63" width="149.57" height="16.93" rx="8.46" ry="8.46" fill="#d1d3d4"></rect>
    <rect x="143.37" y="374.51" width="41.72" height="7.48" rx="3.74" ry="3.74" fill="#d1d3d4"></rect>
    <rect x="143.37" y="407.57" width="21.65" height="7.48" rx="3.74" ry="3.74" fill="#d1d3d4"></rect>
    <rect x="192.96" y="374.51" width="100.37" height="7.48" rx="3.74" ry="3.74" fill="#d1d3d4"></rect>
    <rect x="172.1" y="407.57" width="121.23" height="7.48" rx="3.74" ry="3.74" fill="#d1d3d4"></rect>
    <rect x="143.37" y="424.5" width="121.23" height="7.48" rx="3.74" ry="3.74" fill="#d1d3d4"></rect>
    <rect x="143.37" y="391.44" width="81.08" height="7.48" rx="3.74" ry="3.74" fill="#d1d3d4"></rect>
    <rect x="233.11" y="391.44" width="60.62" height="7.48" rx="3.74" ry="3.74" fill="#d1d3d4"></rect>
  </g>
  <g>
    <polygon points="576.86 323.3 576.03 434.39 677.21 433.15 664.41 334.04 661.93 320.41 643.76 314.63 603.29 312.98 576.86 323.3" fill="#40069d"></polygon>
    <g opacity=".2">
      <path d="M671.01,427.17c-.1,0-.19-.07-.2-.18l-14.87-100.35c-.02-.11,.06-.22,.17-.23,.12-.02,.22,.06,.23,.17l14.87,100.35c.02,.11-.06,.22-.17,.23-.01,0-.02,0-.03,0Z"></path>
    </g>
    <path d="M604.53,196.93c-16.52,5.78-23.95,23.54-23.95,23.54l-16.93,44.19c-4.13,16.52,16.11,31.39,16.11,31.39l-2.89,27.26c6.61,6.19,30.15,7.85,30.15,7.85l6.19-6.61,7.43,8.26,42.12-12.8c-1.65-11.98-7.02-24.78-7.02-24.78,19.41-11.15,22.71-30.56,22.71-30.56,5.18-16.77-3.37-39.62-8.2-50.43-1.74-3.9-4.7-7.13-8.42-9.23l-13.54-7.65-14.04-.83-22.3,.83-7.43-.41Z" fill="#28f200"></path>
    <path d="M641.78,190.79c-13.95,7.49-28.17,2.42-28.17,2.42l2.16-1.85c.46-.4,.71-.97,.69-1.58l-.07-2.03-.17-4.8,12.5-10.57,2.23-1.88,4.53,1.89,4.15,15.45c.12,.41,.36,1.02,.83,1.65,.47,.64,.97,1.05,1.33,1.29Z" fill="#f9b499"></path>
    <path d="M613.61,193.22l-9.09,3.72,9.09,23.13,17.34,14.04,17.34-36.75-6.52-6.55s-12.07,6.97-28.17,2.42Z" fill="#f1f2f2"></path>
    <polygon points="613.59 208.38 604.37 197.06 604.68 196.81 613.63 207.79 624.63 197.61 624.9 197.91 613.59 208.38" fill="#e6e7e8"></polygon>
    <polygon points="632.16 209.99 622.7 199.75 622.99 199.48 632.23 209.48 646.57 200.75 646.78 201.09 632.16 209.99" fill="#e6e7e8"></polygon>
    <path d="M621.59,226.71c-1.39-3.64-.54-7.23-.12-8.6,.2-.64,.33-1.17,.4-1.66,.46-3.23-.19-6.22-.2-6.25-1.23-6.17-.36-9.43-.32-9.57l.39,.11s-.88,3.31,.33,9.38c0,.03,.67,3.08,.2,6.39-.07,.52-.2,1.06-.41,1.72-.42,1.33-1.23,4.82,.11,8.34l-.38,.14Z" fill="#e6e7e8"></path>
    <g opacity=".2">
      <path d="M584.29,227.49l7.02,7.43s-2.85,4.12-6.62,2.92c-1.12-.36-1.94-1.35-2.14-2.51-.3-1.73-.28-3.55,1.74-7.84Z"></path>
    </g>
    <polygon points="557.03 142.83 561.16 183.72 586.77 195.28 589.25 190.33 581.81 139.94 577.68 137.47 557.03 142.83" fill="#28f200"></polygon>
    <g opacity=".2">
      <path d="M586.77,195.49c-.1,0-.19-.07-.2-.17l-9.08-57.4c-.02-.11,.06-.22,.17-.24,.11-.02,.22,.06,.24,.17l9.08,57.4c.02,.11-.06,.22-.17,.24-.01,0-.02,0-.03,0Z"></path>
    </g>
    <path d="M618.57,559.52c-2.48,20.65-1.24,47.49-1.24,47.49-4.56,8.32-8.78,7.74-11.17,6.32-1.02-.61-1.84-1.49-2.44-2.51-3.06-5.09-9.1-5.47-9.1-5.47l.92-3.08c.21-.69,.27-1.42,.17-2.13l-15.55-120.33c-4.54-30.15-3.13-45.34-3.13-45.34l40.79-.57-3.38,21.96c-2.48,15.69-.83,23.95-.83,23.95l4.96,23.13c4.13,21.06,0,56.58,0,56.58Z" fill="#f9b499"></path>
    <path d="M618.15,612.8c-9.5,2.48-11.15,8.26-11.15,8.26l-7.02,14.45c-3.3,10.32-12.8,9.5-12.8,9.5l-19.82,.83c-.25-3.51,1.33-4.58,2.6-4.89,2.02-.48,3.94-1.32,5.5-2.69,5.56-4.88,10.13-13.79,12.2-18.24,.69-1.48,1.25-3.02,1.72-4.58,2.7-8.98,5.24-10.07,5.24-10.07,0,0,6.05,.38,9.1,5.47,.61,1.02,1.42,1.9,2.44,2.51,2.39,1.42,6.6,2,11.17-6.32l.83,5.78Z" fill="#28f200"></path>
    <path d="M615.88,647.07h-48.52v-1.24l19.82-.83s9.5,.83,12.8-9.5l7.02-14.45s1.65-5.78,11.15-8.26l1.8,29.95c.14,2.35-1.72,4.33-4.08,4.33Z" fill="#40069d"></path>
    <path d="M636.2,433.5l9.62,36s2.69,11.93,10.31,26.12c.63,1.17,1.2,2.37,1.71,3.59,4.37,10.46,24.08,58.98,31.06,99.38,.47,2.73,.55,5.51,.2,8.26l-.74,5.95,21.47,3.3-2.89-39.65s-2.63-58.15-17.53-94c-.94-2.26-1.99-4.48-3.13-6.64-1.75-3.31-5.73-11.64-7-21.19,0,0-2.36-15.34-3.45-21.5l-39.62,.37Z" fill="#f9b499"></path>
    <path d="M710.25,621.06v23.54s-11.98,5.37-24.78,6.61l-7.85-5.37s7.85-41.3,20.65-42.54c0,0,8.26-.83,9.09,7.85,0,0,2.48,.83,2.89,9.91Z" fill="#28f200"></path>
    <path d="M710.25,644.6v.9c0,.93-.63,1.74-1.53,1.96l-22.36,5.59c-.56,.14-1.16,.03-1.63-.29l-6.22-4.25c-.55-.38-.88-1-.88-1.67v-1l7.85,5.37c12.8-1.24,24.78-6.61,24.78-6.61Z" fill="#40069d"></path>
    <path d="M632.4,176.9c-3.73,7.81-13.3,9.91-16,10.85l-.17-4.8,12.5-10.57,3.67,4.52Z" fill="#f7a48b"></path>
    <rect x="599.16" y="126.32" width="38.2" height="56.99" rx="19.1" ry="19.1" fill="#f9b499"></rect>
    <path d="M599.19,156.04s-17.38-23.12,1.61-29.31c0,0,2.89-11.15,17.34-9.5,0,0,4.54-8.67,15.28-4.96,0,0,4.96,2.06,4.96,7.85,0,0,11.15-2.89,11.56,16.52,0,0,10.32,7.43,0,23.13,0,0,12.8,2.06,11.56,15.28,0,0,0,6.19-5.78,8.26,0,0,1.24,9.09-9.91,9.09,0,0-4.96-.83-6.19-4.54l-4.15-15.45s2.08-3.75,1.88-8.19v-12.25s-2.54,1.33-8.22-5.76c-1.36-1.69-3.15-2.98-5.18-3.72l-3.95-1.44c-1.15-.42-2.15-1.16-2.87-2.14-.86-1.16-2.2-2.79-3.78-4.14-2.41-2.06-6-1.94-8.24,.3-2.81,2.81-5.94,8.7-5.92,20.99Z" fill="#40069d"></path>
    <ellipse cx="640.39" cy="153.97" rx="8.68" ry="6.61" transform="translate(380.71 759.26) rotate(-80.3)" fill="#f9b499"></ellipse>
    <path d="M591.31,234.93l-32.21-35.1s-2.06-1.65-.41-6.19c0,0-4.96-4.96-1.65-9.91,0,0-3.3-7.85,2.89-11.98l.83,7.02,7.43,5.37-5.38-12.1c-.69-1.56-.07-3.39,1.43-4.2h0c1.52-.82,3.41-.31,4.32,1.16l10.65,17.28c1.68,2.72,5.22,3.62,7.99,2.04h0c.45-.26,.64-.82,.42-1.3l-4.12-9.12c-.74-1.64-.17-3.57,1.34-4.54h0c1.72-1.11,4.02-.57,5.07,1.2l5.6,9.42c1.03,1.73,1.65,3.68,1.8,5.69l1.29,16.72c.08,1.1,.52,2.15,1.25,2.99l4.25,4.91s.41,6.61-12.8,20.65Z" fill="#f9b499"></path>
    <path d="M568.18,193.01s-.09-.02-.13-.05l-10.74-8.67c-.09-.07-.1-.2-.03-.29,.07-.09,.2-.1,.29-.03l10.74,8.67c.09,.07,.1,.2,.03,.29-.04,.05-.1,.08-.16,.08Z" fill="#f7a48b"></path>
    <path d="M566.53,200.44s-.09-.02-.13-.05l-7.85-6.61c-.09-.07-.1-.2-.03-.29,.07-.09,.21-.1,.29-.02l7.85,6.61c.09,.07,.1,.2,.03,.29-.04,.05-.1,.07-.16,.07Z" fill="#f7a48b"></path>
    <g opacity=".2">
      <path d="M663.99,260.74s-.07,0-.1-.03c-13.49-7.77-32.88-26.27-33.08-26.46-15.5-13.05-25.07-19.74-25.17-19.8-.09-.06-.12-.19-.05-.29,.07-.09,.19-.12,.29-.05,.09,.07,9.69,6.76,25.21,19.83,.2,.19,19.56,18.67,33.01,26.41,.1,.06,.13,.18,.08,.28-.04,.07-.11,.1-.18,.1Z"></path>
    </g>
    <g opacity=".2">
      <path d="M644.18,246.17s-.06,0-.08-.02c-.1-.05-.15-.17-.1-.27l5.36-11.86c.05-.1,.17-.15,.27-.1,.1,.05,.15,.17,.1,.27l-5.36,11.86c-.04,.08-.11,.12-.19,.12Z"></path>
    </g>
    <g opacity=".2">
      <path d="M646.65,232.24s-.07,0-.1-.02c-.1-.05-.14-.18-.08-.28,8.59-15.95,18.53-25.15,18.63-25.25,.08-.08,.21-.07,.29,.01,.08,.08,.07,.21-.01,.29-.1,.09-9.99,9.25-18.54,25.14-.04,.07-.11,.11-.18,.11Z"></path>
    </g>
    <g opacity=".2">
      <path d="M585.87,296.7c-1.85,0-3.64-.12-5.34-.39-.3-.05-.6-.09-.68-.08-.08,.04-.18,.03-.25-.04-.08-.08-.08-.21,0-.29,.13-.13,.32-.1,.99,0,13.18,2.05,31.47-4.51,44.5-10.37,.1-.05,.23,0,.27,.1,.05,.1,0,.23-.1,.27-11.4,5.13-26.83,10.79-39.39,10.79Zm-6.04-.47h0Zm.06-.04s0,0,0,0t0,0Z"></path>
    </g>
    <g opacity=".2">
      <path d="M644.48,297.61c-6.03,0-9.06-2.19-9.1-2.23-26.15-20.84-49.78-53.4-50.01-53.73-.07-.09-.05-.22,.05-.29,.09-.07,.22-.05,.29,.05,.24,.33,23.83,32.84,49.93,53.65,.06,.04,6.69,4.82,20.04-.03,.11-.04,.22,.02,.26,.12,.04,.11-.02,.23-.12,.26-4.53,1.65-8.31,2.2-11.33,2.2Z"></path>
    </g>
    <g opacity=".2">
      <path d="M580.01,250.06c-.95,0-1.5-.05-1.52-.05-.11-.01-.2-.11-.18-.23s.1-.19,.23-.18c.05,0,5.43,.52,11.9-1.78,.11-.04,.22,.02,.26,.12,.04,.11-.02,.23-.12,.26-4.5,1.6-8.48,1.85-10.56,1.85Z"></path>
    </g>
    <g opacity=".2">
      <path d="M613.2,318.97c-.11,0-.2-.09-.21-.2l-1.27-27.69c0-.11,.08-.21,.2-.22,0,0,0,0,0,0,.11,0,.2,.09,.21,.2l1.27,27.69c0,.11-.08,.21-.2,.22,0,0,0,0,0,0Z"></path>
    </g>
    <g opacity=".2">
      <path d="M634.67,307.82c-.1,0-.19-.07-.2-.17-.02-.11,.06-.22,.17-.24,.12-.02,12.45-2.1,19.77-5.35,.1-.05,.23,0,.27,.1s0,.23-.1,.27c-7.37,3.28-19.75,5.36-19.87,5.38-.01,0-.02,0-.03,0Z"></path>
    </g>
    <g opacity=".2">
      <path d="M594.2,308.64s-.03,0-.04,0l-12.39-2.48c-.11-.02-.18-.13-.16-.24s.13-.18,.24-.16l12.39,2.48c.11,.02,.18,.13,.16,.24-.02,.1-.11,.17-.2,.17Z"></path>
    </g>
  </g>
  <g>
    <rect x="153.87" y="443.9" width="163.35" height="255.06" rx="12.65" ry="12.65" transform="translate(-335.89 806.98) rotate(-90)" fill="#28f200"></rect>
    <g opacity=".3">
      <rect x="171.78" y="568.65" width="6.18" height="102.83" rx="3.07" ry="3.07" transform="translate(-445.2 794.94) rotate(-90)" fill="#fff"></rect>
    </g>
    <g opacity=".3">
      <rect x="308.11" y="583.63" width="6.18" height="72.87" rx="3.07" ry="3.07" transform="translate(-308.87 931.27) rotate(-90)" fill="#fff"></rect>
    </g>
    <g opacity=".3">
      <rect x="140.59" y="579.15" width="11.12" height="45.39" rx="5.56" ry="5.56" transform="translate(-455.7 748) rotate(-90)" fill="#fff"></rect>
    </g>
    <g opacity=".3">
      <rect x="198.03" y="578.85" width="11.12" height="45.39" rx="5.56" ry="5.56" transform="translate(-397.95 805.13) rotate(-90)" fill="#fff"></rect>
    </g>
    <g opacity=".3">
      <rect x="261.02" y="578.85" width="11.12" height="45.39" rx="5.56" ry="5.56" transform="translate(-334.96 868.12) rotate(-90)" fill="#fff"></rect>
    </g>
    <g opacity=".3">
      <rect x="319.38" y="578.85" width="11.12" height="45.39" rx="5.56" ry="5.56" transform="translate(-276.6 926.48) rotate(-90)" fill="#fff"></rect>
    </g>
    <rect x="137.35" y="527.43" width="34.89" height="54.04" rx="3.68" ry="3.68" transform="translate(-399.65 709.25) rotate(-90)" fill="#40069d"></rect>
    <g opacity=".3">
      <rect x="297.77" y="503.81" width="35.2" height="46.01" rx="17.6" ry="17.6" transform="translate(-211.44 842.18) rotate(-90)" fill="#fff"></rect>
    </g>
  </g>
  <g>
    <path d="M333.29,104.15v6.36h10.25v5.91h-10.25v6.89h11.59v6.13h-19.25v-31.42h19.25v6.13h-11.59Z" fill="#40069d"></path>
    <path d="M369.09,110.55v6.36h-19.69v-6.36h19.69Z" fill="#40069d"></path>
    <path d="M376.37,100.68c-.85-.79-1.28-1.77-1.28-2.93s.43-2.19,1.28-2.98c.85-.79,1.95-1.19,3.29-1.19s2.39,.4,3.25,1.19c.85,.79,1.28,1.78,1.28,2.98s-.43,2.14-1.28,2.93c-.85,.79-1.93,1.19-3.25,1.19s-2.44-.4-3.29-1.19Zm7.09,3.78v24.98h-7.65v-24.98h7.65Z" fill="#40069d"></path>
    <path d="M411.23,107.04c1.75,1.9,2.62,4.5,2.62,7.81v14.59h-7.61v-13.56c0-1.67-.43-2.97-1.3-3.89-.87-.92-2.03-1.39-3.49-1.39s-2.63,.46-3.49,1.39c-.87,.93-1.3,2.22-1.3,3.89v13.56h-7.65v-24.98h7.65v3.31c.78-1.1,1.82-1.98,3.13-2.62,1.31-.64,2.79-.96,4.43-.96,2.92,0,5.26,.95,7.01,2.84Z" fill="#40069d"></path>
    <path d="M430.41,122.28l5.42-17.81h8.15l-8.86,24.98h-9.44l-8.86-24.98h8.19l5.42,17.81Z" fill="#40069d"></path>
    <path d="M451.97,128.23c-1.95-1.04-3.49-2.54-4.61-4.48-1.12-1.94-1.68-4.21-1.68-6.8s.57-4.83,1.7-6.78c1.13-1.95,2.69-3.45,4.66-4.5,1.97-1.04,4.18-1.57,6.62-1.57s4.66,.52,6.62,1.57c1.97,1.04,3.52,2.54,4.66,4.5,1.13,1.95,1.7,4.22,1.7,6.78s-.57,4.83-1.72,6.78c-1.15,1.95-2.72,3.45-4.7,4.5-1.98,1.04-4.2,1.57-6.65,1.57s-4.65-.52-6.6-1.57Zm10.34-6.67c1.03-1.07,1.54-2.61,1.54-4.61s-.5-3.54-1.5-4.61c-1-1.07-2.23-1.61-3.69-1.61s-2.73,.53-3.72,1.59c-.98,1.06-1.48,2.6-1.48,4.63s.48,3.54,1.45,4.61c.97,1.07,2.19,1.61,3.65,1.61s2.71-.54,3.74-1.61Z" fill="#40069d"></path>
    <path d="M476.27,100.68c-.85-.79-1.28-1.77-1.28-2.93s.43-2.19,1.28-2.98c.85-.79,1.95-1.19,3.29-1.19s2.39,.4,3.25,1.19c.85,.79,1.28,1.78,1.28,2.98s-.43,2.14-1.28,2.93c-.85,.79-1.93,1.19-3.25,1.19s-2.44-.4-3.29-1.19Zm7.09,3.78v24.98h-7.65v-24.98h7.65Z" fill="#40069d"></path>
    <path d="M488.98,110.15c1.06-1.94,2.54-3.43,4.43-4.48,1.89-1.04,4.07-1.57,6.51-1.57,3.13,0,5.75,.82,7.86,2.46,2.1,1.64,3.48,3.95,4.14,6.94h-8.15c-.69-1.91-2.01-2.86-3.98-2.86-1.4,0-2.52,.54-3.36,1.63-.84,1.09-1.25,2.65-1.25,4.68s.42,3.59,1.25,4.68c.84,1.09,1.95,1.63,3.36,1.63,1.97,0,3.3-.95,3.98-2.86h8.15c-.66,2.92-2.04,5.22-4.16,6.89-2.12,1.67-4.73,2.51-7.83,2.51-2.45,0-4.62-.52-6.51-1.57-1.9-1.04-3.37-2.54-4.43-4.48-1.06-1.94-1.59-4.21-1.59-6.8s.53-4.86,1.59-6.8Z" fill="#40069d"></path>
    <path d="M539.41,118.79h-17.32c.12,1.55,.62,2.74,1.5,3.56,.88,.82,1.96,1.23,3.25,1.23,1.91,0,3.24-.81,3.98-2.42h8.15c-.42,1.64-1.17,3.12-2.26,4.43-1.09,1.31-2.45,2.34-4.1,3.09-1.64,.75-3.48,1.12-5.51,1.12-2.45,0-4.63-.52-6.54-1.57-1.91-1.04-3.4-2.54-4.48-4.48-1.07-1.94-1.61-4.21-1.61-6.8s.53-4.86,1.59-6.8c1.06-1.94,2.54-3.43,4.45-4.48,1.91-1.04,4.1-1.57,6.58-1.57s4.57,.51,6.45,1.52c1.88,1.01,3.35,2.46,4.41,4.34,1.06,1.88,1.59,4.07,1.59,6.58,0,.72-.04,1.46-.13,2.24Zm-7.7-4.25c0-1.31-.45-2.36-1.34-3.13-.9-.78-2.01-1.16-3.36-1.16s-2.37,.37-3.25,1.12c-.88,.75-1.43,1.81-1.63,3.18h9.58Z" fill="#40069d"></path>
  </g>
</svg>
